<?xml version="1.0" standalone="no"?>
<!DOCTYPE svg PUBLIC "-//W3C//DTD SVG 20010904//EN"
 "http://www.w3.org/TR/2001/REC-SVG-20010904/DTD/svg10.dtd">
<svg version="1.0" xmlns="http://www.w3.org/2000/svg"
 width="300.000000pt" height="300.000000pt" viewBox="0 0 300.000000 300.000000"
 preserveAspectRatio="xMidYMid meet">
<metadata>
Created by potrace 1.14, written by Peter Selinger 2001-2017
</metadata>
<g transform="translate(0.000000,300.000000) scale(0.100000,-0.100000)"
fill="#000000" stroke="none">
<path d="M695 2830 c-4 -6 56 -117 132 -248 l138 -237 72 -3 c116 -5 115 -6
-18 -239 -88 -153 -110 -199 -102 -212 14 -23 409 -703 450 -774 26 -46 31
-63 23 -78 -6 -10 -18 -19 -28 -19 -9 0 -159 76 -332 169 -173 93 -320 167
-327 164 -11 -4 -13 -66 -11 -306 l3 -301 56 -31 c30 -18 113 -62 185 -100 71
-37 147 -78 169 -91 22 -12 201 -108 399 -213 285 -152 361 -189 372 -180 12
10 14 64 12 306 l-3 295 -112 60 c-62 34 -114 67 -118 76 -6 15 33 91 158 306
l74 130 -47 80 c-26 45 -77 132 -114 194 -36 63 -66 121 -66 131 0 38 17 41
255 41 l230 0 95 167 c52 92 96 175 98 185 3 17 -15 18 -352 18 l-355 0 -42
-75 c-60 -104 -76 -103 -140 12 -12 21 -48 84 -81 140 -91 156 -127 143 401
143 365 0 440 2 444 14 3 8 -56 120 -131 250 l-137 236 -622 0 c-416 0 -624
-3 -628 -10z"/>
</g>
</svg>
