<svg width="32" height="32" viewBox="0 0 32 32" fill="none" xmlns="http://www.w3.org/2000/svg">
<g id="Arrow 14">
<path id="Arrow 14_2" d="M2.23223 25.2322C1.25592 26.2085 1.25592 27.7915 2.23223 28.7678C3.20854 29.7441 4.79146 29.7441 5.76777 28.7678L2.23223 25.2322ZM28.5 5C28.5 3.61929 27.3807 2.5 26 2.5L3.5 2.5C2.11929 2.5 1 3.61929 1 5C1 6.38071 2.11929 7.5 3.5 7.5H23.5V27.5C23.5 28.8807 24.6193 30 26 30C27.3807 30 28.5 28.8807 28.5 27.5L28.5 5ZM5.76777 28.7678L27.7678 6.76777L24.2322 3.23223L2.23223 25.2322L5.76777 28.7678Z" fill="#EEEAE4"/>
</g>
</svg>
