<?xml version="1.0" encoding="UTF-8"?>
<svg id="Layer_2" data-name="Layer 2" xmlns="http://www.w3.org/2000/svg" viewBox="0 0 562.98 836.43">
  <defs>
    <style>
      .cls-1 {
        fill: #231f20;
      }
    </style>
  </defs>
  <path class="cls-1" d="M515.02,254.45l-52.48,91.31c-1.22,2.13-3.49,3.44-5.94,3.44h-120.92c-8.07,0-13.11,8.74-9.06,15.73l62.73,108.17-64.71,112.58c-2.95,5.12-1.07,11.67,4.14,14.45l56.98,30.46c2.23,1.19,3.62,3.51,3.62,6.04v158.82c0,5.17-5.52,8.48-10.08,6.04L58.58,630.05c-2.23-1.19-3.62-3.51-3.62-6.04v-158.82c0-5.17,5.52-8.48,10.08-6.04l171.79,91.82c9.3,4.97,19.29-5.37,14-14.49L118.1,307.65c-1.23-2.12-1.23-4.73-.01-6.85l58.02-100.92c4.01-6.98-1.03-15.69-9.08-15.69h-30.17c-2.44,0-4.7-1.3-5.93-3.41L57.23,53.69c-2.65-4.57,.65-10.29,5.93-10.29H400.71c2.44,0,4.7,1.3,5.93,3.41l73.7,127.09c2.65,4.57-.65,10.29-5.93,10.29H239.98c-8.07,0-13.11,8.74-9.06,15.73l47.91,82.61c4.04,6.97,14.12,6.95,18.14-.04l20.04-34.87c1.22-2.13,3.49-3.44,5.94-3.44h186.13c5.27,0,8.56,5.7,5.94,10.26Z"/>
</svg>