<svg width="929" height="103" viewBox="0 0 929 103" fill="none" xmlns="http://www.w3.org/2000/svg">
<path d="M0 0.0917969H102.908V103H46.393C20.7709 103 0 82.229 0 56.6068V0.0917969Z" fill="#0A0A0A"/>
<path d="M131.587 103V0.0917969H135.639V103H131.587ZM143.743 103V0.0917969H147.795V103H143.743ZM151.847 103V0.0917969H159.952V103H151.847Z" fill="#0A0A0A"/>
<path d="M169.417 103V0.0917969H173.469V103H169.417ZM177.521 103V0.0917969H185.625V103H177.521ZM201.833 103V0.0917969H205.885V103H201.833Z" fill="#0A0A0A"/>
<path d="M207.247 103V0.0917969H211.299V103H207.247ZM219.403 103V0.0917969H227.507V103H219.403ZM231.559 103V0.0917969H235.611V103H231.559Z" fill="#0A0A0A"/>
<path d="M245.076 103V0.0917969H249.128V103H245.076ZM265.337 103V0.0917969H269.389V103H265.337ZM277.493 103V0.0917969H285.597V103H277.493Z" fill="#0A0A0A"/>
<path d="M282.906 103V0.0917969H286.958V103H282.906ZM295.062 103V0.0917969H303.166V103H295.062ZM319.375 103V0.0917969H323.427V103H319.375Z" fill="#0A0A0A"/>
<path d="M320.736 103V0.0917969H324.788V103H320.736ZM328.84 103V0.0917969H345.048V103H328.84ZM353.152 103V0.0917969H357.204V103H353.152Z" fill="#0A0A0A"/>
<path d="M358.566 103V0.0917969H366.67V103H358.566ZM370.722 103V0.0917969H386.93V103H370.722ZM390.982 103V0.0917969H399.086V103H390.982Z" fill="#0A0A0A"/>
<path d="M396.395 103V0.0917969H400.447V103H396.395ZM408.551 103V0.0917969H424.76V103H408.551ZM428.812 103V0.0917969H432.864V103H428.812Z" fill="#0A0A0A"/>
<path d="M434.225 103V0.0917969H438.277V103H434.225ZM446.381 103V0.0917969H454.485V103H446.381ZM470.694 103V0.0917969H474.746V103H470.694Z" fill="#0A0A0A"/>
<path d="M472.055 103V0.0917969H480.159V103H472.055ZM496.367 103V0.0917969H500.419V103H496.367ZM504.471 103V0.0917969H508.523V103H504.471Z" fill="#0A0A0A"/>
<path d="M509.884 103V0.0917969H513.937V103H509.884ZM517.989 103V0.0917969H534.197V103H517.989ZM542.301 103V0.0917969H546.353V103H542.301Z" fill="#0A0A0A"/>
<path d="M547.714 103V0.0917969H555.818V103H547.714ZM559.87 103V0.0917969H576.079V103H559.87ZM580.131 103V0.0917969H588.235V103H580.131Z" fill="#0A0A0A"/>
<path d="M585.544 103V0.0917969H589.596V103H585.544ZM597.7 103V0.0917969H613.908V103H597.7ZM617.96 103V0.0917969H622.012V103H617.96Z" fill="#0A0A0A"/>
<path d="M623.374 103V0.0917969H627.426V103H623.374ZM643.634 103V0.0917969H647.686V103H643.634ZM655.79 103V0.0917969H663.894V103H655.79Z" fill="#0A0A0A"/>
<path d="M661.203 103V0.0917969H665.255V103H661.203ZM681.464 103V0.0917969H689.568V103H681.464ZM697.672 103V0.0917969H701.724V103H697.672Z" fill="#0A0A0A"/>
<path d="M699.033 103V0.0917969H707.137V103H699.033ZM723.345 103V0.0917969H727.398V103H723.345ZM731.45 103V0.0917969H735.502V103H731.45Z" fill="#0A0A0A"/>
<path d="M736.863 103V0.0917969H744.967V103H736.863ZM749.019 103V0.0917969H765.227V103H749.019ZM769.279 103V0.0917969H777.383V103H769.279Z" fill="#0A0A0A"/>
<path d="M774.693 103V0.0917969H778.745V103H774.693ZM786.849 103V0.0917969H803.057V103H786.849ZM807.109 103V0.0917969H811.161V103H807.109Z" fill="#0A0A0A"/>
<path d="M812.522 103V0.0917969H816.574V103H812.522ZM832.783 103V0.0917969H836.835V103H832.783ZM844.939 103V0.0917969H853.043V103H844.939Z" fill="#0A0A0A"/>
<path d="M850.352 103V0.0917969H854.404V103H850.352ZM862.508 103V0.0917969H870.612V103H862.508ZM874.664 103V0.0917969H878.716V103H874.664Z" fill="#0A0A0A"/>
<path d="M888.182 103V0.0917969H892.234V103H888.182ZM908.442 103V0.0917969H916.546V103H908.442ZM924.65 103V0.0917969H928.702V103H924.65Z" fill="#0A0A0A"/>
</svg>
