<svg width="1834" height="805" viewBox="0 0 1834 805" fill="none" xmlns="http://www.w3.org/2000/svg">
<path fill-rule="evenodd" clip-rule="evenodd" d="M1833.91 393C1833.86 393 1833.82 393.041 1833.82 393.091C1833.94 396.38 1834 399.683 1834 403V715C1834 764.706 1793.71 805 1744 805H90C40.2943 805 0 764.706 0 715V219C0 169.294 40.2944 129 90 129H1118.1C1153.02 129 1185.54 113.085 1212.07 90.391C1277.96 34.0349 1363.5 0 1457 0C1665.21 0 1834 168.789 1834 377V392.912C1834 392.961 1833.96 393 1833.91 393V393Z" fill="#EEEAE4"/>
</svg>
