<svg width="386" height="978" viewBox="0 0 386 978" fill="none" xmlns="http://www.w3.org/2000/svg">
<path fill-rule="evenodd" clip-rule="evenodd" d="M17.1443 712.493C25.3214 694.803 25.6644 674.213 20.7465 655.355C18.3015 645.979 17 636.142 17 626L17 37.2296C17 16.6682 33.6683 -1.53805e-05 54.2297 -1.44817e-05L333.77 -2.26263e-06C354.332 -1.36386e-06 371 16.6683 371 37.2296L371 626C371 636.84 369.513 647.333 366.732 657.286C361.453 676.177 361.468 696.918 369.451 714.834C379.788 738.034 385.533 763.73 385.533 790.769C385.533 893.918 301.914 977.537 198.764 977.537L186.768 977.537C83.6189 977.537 -0.00046632 893.918 -0.000461812 790.769C-0.00046059 762.818 6.13953 736.301 17.1443 712.493Z" fill="#EEEAE4"/>
</svg>
