<svg width="386" height="969" viewBox="0 0 386 969" fill="none" xmlns="http://www.w3.org/2000/svg">
<path fill-rule="evenodd" clip-rule="evenodd" d="M10.0148 721.273C11.8177 716.004 11.9995 710.339 11.9995 704.77L11.9995 37.2296C11.9995 16.6682 28.6678 -1.55991e-05 49.2292 -1.47003e-05L328.77 -2.4812e-06C349.331 -1.58244e-06 365.999 16.6683 365.999 37.2296L365.999 628.656C365.999 636.453 365.212 644.067 363.713 651.421C360.156 668.867 361 687.472 368.456 703.641C379.419 727.41 385.533 753.875 385.533 781.769C385.533 884.918 301.914 968.537 198.764 968.537L186.768 968.537C83.6189 968.537 -0.000465927 884.918 -0.000461418 781.769C-0.000460493 760.596 3.5227 740.246 10.0148 721.273Z" fill="#EEEAE4"/>
</svg>
